<?xml version="1.0" encoding="UTF-8" standalone="no"?>
<svg width="21px" height="21px" viewBox="0 0 21 21" version="1.1" xmlns="http://www.w3.org/2000/svg" xmlns:xlink="http://www.w3.org/1999/xlink">
    <!-- Generator: Sketch 3.7.1 (28215) - http://www.bohemiancoding.com/sketch -->
    <title>Combined Shape</title>
    <desc>Created with Sketch.</desc>
    <defs></defs>
    <g id="Page-1" stroke="none" stroke-width="1" fill="none" fill-rule="evenodd">
        <path d="M10.8323676,11.4423916 L19.4935781,20.103602 C19.6469904,20.2567007 19.8474618,20.33325 20.0482469,20.33325 C20.249032,20.33325 20.4495034,20.2567007 20.602602,20.103602 C20.909113,19.7974048 20.909113,19.3010891 20.602602,18.9945781 L11.9413916,10.3333676 L20.602602,1.67215721 C20.909113,1.36595993 20.909113,0.869330534 20.602602,0.563133254 C20.2964048,0.256622249 19.8000891,0.256622249 19.4935781,0.563133254 L10.8323676,9.22434369 L2.17115721,0.563133254 C1.86527366,0.256622249 1.36833053,0.256622249 1.06213325,0.563133254 C0.755622249,0.869330534 0.755622249,1.36595993 1.06213325,1.67215721 L9.72334369,10.3333676 L1.06213325,18.9945781 C0.755622249,19.3007754 0.755622249,19.797091 1.06213325,20.103602 C1.21523189,20.2567007 1.416017,20.33325 1.6168021,20.33325 C1.8175872,20.33325 2.0183723,20.2567007 2.17115721,20.103602 L10.8323676,11.4423916 Z" id="Combined-Shape" fill="#FF6A6A"></path>
    </g>
</svg>